<svg xmlns="http://www.w3.org/2000/svg" viewBox="0 0 23 25" class="as-svgicon as-svgicon-chat as-svgicon-reduced as-svgicon-chatreduced" role="img" aria-hidden="true" width="25px" height="25px"><path fill="none" d="M0 0h23v25H0z"></path><path d="M22.71 15.441c0-2.849-2.846-5.154-6.417-5.154h-.076a8.059 8.059 0 00-1.035.078c-2.72.377-4.823 2.112-5.228 4.3a4.218 4.218 0 00-.078.768c0 .089.011.175.016.262.169 2.84 3.035 4.885 6.538 4.885.179 0 .36-.005.541-.016A8.149 8.149 0 0020.278 22c.517 0 .667-.413.374-.78a10.986 10.986 0 01-.96-1.4 4.937 4.937 0 003.018-4.379zm-3.446 3.471l-.942.446.484.923c.046.088.1.178.151.268a11.49 11.49 0 01-1.431-.809l-.279-.185-.334.02c-.162.01-.323.014-.482.014-3.094 0-5.52-1.8-5.551-4.1v-.044a3.237 3.237 0 01.183-1.053 4.923 4.923 0 013.729-2.935 6.889 6.889 0 011.169-.153c.112-.005.222-.013.336-.013 2.987 0 5.417 1.864 5.417 4.154a3.957 3.957 0 01-2.45 3.467z"></path><path d="M8.915 14.819a9.88 9.88 0 01-.794.033q-.305 0-.616-.018l-.334-.02-.279.186a13.767 13.767 0 01-2.578 1.356 9.545 9.545 0 00.626-1l.484-.922-.941-.446A5.18 5.18 0 011.29 9.43c0-2.994 3.141-5.43 7-5.43 3.826 0 6.941 2.393 7 5.351a8.9 8.9 0 011-.063C16.19 5.8 12.684 3 8.292 3c-4.453 0-8 2.875-8 6.43a6.159 6.159 0 003.764 5.457 13.707 13.707 0 01-1.2 1.752c-.366.458-.179.973.466.973a10.16 10.16 0 004.123-1.781q.34.02.675.02c.263 0 .522-.011.779-.029-.009-.127-.023-.253-.023-.381a5.154 5.154 0 01.039-.622z"></path></svg>